 <svg version="1.0" xmlns="http://www.w3.org/2000/svg"  width="600.000000pt" height="600.000000pt" viewBox="0 0 600.000000 600.000000"  preserveAspectRatio="xMidYMid meet">  <g transform="translate(0.000000,600.000000) scale(0.100000,-0.100000)" fill="#000000" stroke="none"> <path d="M2680 5683 c-118 -44 -207 -116 -251 -203 -12 -25 -24 -46 -25 -48 -1 -2 -28 9 -61 24 -51 25 -70 28 -158 29 -111 0 -157 -14 -230 -70 -82 -63 -116 -113 -146 -215 -18 -62 -19 -124 -19 -1587 0 -1063 -3 -1524 -11 -1528 -5 -4 -15 -17 -20 -28 -5 -12 -18 -35 -28 -52 -50 -79 -91 -298 -91 -484 0 -142 28 -295 77 -426 39 -101 144 -284 223 -385 24 -30 37 -52 79 -130 33 -61 40 -83 46 -145 8 -79 29 -116 74 -135 26 -11 35 -9 65 9 42 26 50 56 41 149 -10 88 -39 167 -95 257 -14 22 -27 45 -30 50 -3 6 -27 43 -55 83 -27 40 -56 83 -63 95 -7 12 -21 36 -32 52 -10 17 -28 50 -40 75 -12 25 -26 53 -31 62 -39 74 -79 275 -79 399 0 116 25 301 46 342 8 16 14 33 14 38 0 16 72 113 108 145 19 18 53 41 76 53 22 12 57 31 76 43 95 56 424 224 585 297 39 18 84 39 100 47 52 24 154 34 452 44 158 6 333 14 388 19 55 5 106 6 113 4 27 -11 5 -161 -34 -224 -73 -118 -266 -179 -620 -193 -138 -6 -149 -9 -259 -71 -33 -18 -82 -45 -110 -60 -27 -14 -77 -41 -110 -59 -33 -18 -84 -45 -113 -61 -67 -35 -112 -80 -112 -110 0 -13 31 -66 73 -122 79 -109 80 -110 136 -203 55 -92 87 -154 94 -181 33 -138 41 -149 102 -149 43 0 60 12 85 59 30 58 -44 242 -179 446 -40 59 -70 113 -68 119 3 6 33 26 68 45 35 19 91 49 124 67 164 90 173 93 312 99 134 6 284 27 366 50 59 17 68 14 102 -35 41 -59 105 -110 175 -139 54 -22 221 -26 264 -6 43 21 72 16 69 -10 -1 -11 -5 -74 -8 -140 -4 -66 -13 -151 -21 -190 -8 -38 -14 -81 -14 -95 0 -74 -100 -423 -165 -575 -75 -176 -105 -291 -105 -403 0 -77 1 -81 31 -106 36 -30 40 -31 79 -11 41 21 56 57 64 150 8 88 32 177 81 290 7 17 20 50 30 75 9 25 23 60 31 78 8 18 14 39 14 47 0 8 6 29 14 47 39 95 89 323 121 563 22 168 44 1538 25 1635 -24 128 -91 221 -202 280 -61 33 -67 34 -173 33 -92 0 -116 -4 -149 -21 -21 -12 -43 -19 -47 -16 -5 3 -9 353 -9 777 0 759 0 774 -21 832 -36 104 -103 180 -202 231 -46 24 -63 27 -157 28 -81 0 -112 -4 -137 -17 -57 -30 -70 -24 -78 39 -18 145 -115 262 -260 313 -57 20 -168 28 -205 14z m171 -191 c42 -21 69 -46 95 -87 18 -28 19 -74 24 -1250 3 -671 9 -1228 13 -1237 25 -51 100 -63 138 -22 l24 26 5 1041 c3 573 10 1053 14 1067 25 69 86 115 164 126 94 12 176 -33 213 -117 18 -39 19 -93 19 -1170 0 -779 -3 -1130 -11 -1134 -5 -4 -112 -11 -237 -16 -311 -12 -469 -26 -517 -45 -93 -39 -142 -62 -370 -176 -239 -119 -340 -171 -403 -209 -19 -10 -38 -17 -43 -14 -5 4 -9 571 -8 1433 0 1619 -7 1480 84 1557 46 39 48 40 125 40 77 0 79 -1 126 -41 89 -75 83 13 84 -1235 l0 -1096 23 -20 c33 -31 62 -36 96 -18 65 33 61 -46 61 1279 l0 1204 33 44 c63 83 166 112 248 70z m1197 -2196 c45 -28 72 -65 89 -121 18 -57 18 -975 1 -1041 -10 -34 -25 -58 -60 -89 -52 -47 -106 -62 -175 -49 -37 6 -120 64 -129 89 -3 7 19 37 48 66 82 81 113 152 134 299 34 245 6 304 -143 298 l-68 -3 -2 215 c-3 207 -2 216 20 255 12 21 42 54 65 72 40 30 50 33 113 33 56 0 77 -5 107 -24z"></path> </g> </svg> 